<svg width="64" height="64" viewBox="0 0 64 64" fill="none" xmlns="http://www.w3.org/2000/svg">
<g clip-path="url(#clip0_10_21)">
<path d="M7.46745 34.3613L5.14933 33.6658C2.97341 40.6544 2.03304 56.048 15.679 61.715C32.7364 68.7988 44.1022 54.9484 45.0185 45.6268L17.1415 37.2637M7.46745 34.3613C6.38081 36.2545 4.75729 40.9747 6.95643 44.7104C11.7531 43.6299 21.1644 41.1192 20.4367 39.7236C19.709 38.328 11.4873 35.5673 7.46745 34.3613ZM7.46745 34.3613L17.1415 37.2637ZM40.3841 56.6224C47.8203 56.6076 62.7702 51.9951 63.0803 33.6658C63.3904 15.3367 49.3473 10.3197 42.2872 10.1024C32.8069 9.05551 14.5054 13.0221 17.1415 37.2637M6.95643 46.7369C7.38522 48.7048 9.07451 53.1123 12.4014 55.0013C21.9522 44.6223 20.8244 43.8118 20.7187 42.0849C20.6341 40.7034 11.5086 44.6107 6.95643 46.7369ZM13.2472 56.129C14.2047 57.7326 17.501 60.626 23.0271 59.3714C24.0491 53.8559 22.7451 45.2743 22.3574 44.1642C22.0473 43.2761 16.1547 51.7709 13.2472 56.129ZM24.9302 59.6533C26.9214 60.0353 31.4747 59.8648 33.7585 56.129C33.0359 53.433 26.6747 42.8602 24.9302 42.8602C23.5345 42.8602 24.3486 54.0557 24.9302 59.6533ZM35.8906 55.4947C37.9992 54.0733 42.0052 50.0286 41.1594 45.2215C38.2854 43.558 30.5285 42.0616 27.0095 41.521C28.2218 46.2435 33.4354 52.8046 35.8906 55.4947Z" fill="#F5C030"/>
<path d="M7.46745 34.3613L5.14933 33.6658C2.97341 40.6544 2.03304 56.048 15.679 61.715C32.7364 68.7988 44.1022 54.9484 45.0185 45.6268L17.1415 37.2637M7.46745 34.3613C6.38081 36.2545 4.75729 40.9747 6.95643 44.7104C11.7531 43.6299 21.1644 41.1192 20.4367 39.7236C19.709 38.328 11.4873 35.5673 7.46745 34.3613ZM7.46745 34.3613L17.1415 37.2637M17.1415 37.2637C14.5054 13.0221 32.8069 9.05551 42.2872 10.1024C49.3473 10.3197 63.3904 15.3367 63.0803 33.6658C62.7702 51.9951 47.8203 56.6076 40.3841 56.6224M6.95643 46.7369C7.38522 48.7048 9.07451 53.1123 12.4014 55.0013C21.9522 44.6223 20.8244 43.8118 20.7187 42.0849C20.6341 40.7034 11.5086 44.6107 6.95643 46.7369ZM13.2472 56.129C14.2047 57.7326 17.501 60.626 23.0271 59.3714C24.0491 53.8559 22.7451 45.2743 22.3574 44.1642C22.0473 43.2761 16.1547 51.7709 13.2472 56.129ZM24.9302 59.6533C26.9214 60.0353 31.4747 59.8648 33.7585 56.129C33.0359 53.433 26.6747 42.8602 24.9302 42.8602C23.5345 42.8602 24.3486 54.0557 24.9302 59.6533ZM35.8906 55.4947C37.9992 54.0733 42.0052 50.0286 41.1594 45.2215C38.2854 43.558 30.5285 42.0616 27.0095 41.521C28.2218 46.2435 33.4354 52.8046 35.8906 55.4947Z" stroke="#C88000" stroke-width="0.564983" stroke-linecap="round" stroke-linejoin="round"/>
<path d="M40.4194 3.95255C40.1787 4.11114 39.6652 4.52348 39.5384 4.90411C39.4735 5.09805 39.2064 5.52159 38.868 5.99663M37.3533 7.84686C36.7542 8.41075 32.807 9.87331 32.8599 10.1553ZM37.3533 7.84686C37.7368 7.48595 38.3771 6.68693 38.868 5.99663ZM37.3533 7.84686C38.105 7.31823 39.6406 6.20808 39.7674 5.99663C39.8943 5.78517 40.3112 5.45037 40.5037 5.3094M38.868 5.99663C38.7454 5.99663 38.4458 6.49002 37.5472 6.93056C36.8282 7.28298 34.1226 8.39312 32.8599 8.90414C32.7365 8.96286 32.5427 9.51032 32.7541 11.2302C32.6484 12.2874 30.7277 16.358 29.4942 17.5033C28.4898 18.5019 26.0298 20.5131 24.2254 20.5694C21.9699 20.6399 19.7496 22.3492 18.5514 23.6003C17.3531 24.8514 14.3222 25.5915 10.4103 25.2743C9.10634 25.5386 7.71426 26.3492 7.46756 26.6312C7.22086 26.9131 4.64815 28.8162 1.17676 27.7237C2.8684 26.9719 6.53363 24.5765 7.6614 21.01C8.78916 17.4434 13.8993 12.0407 16.3135 9.78521C16.6541 9.49738 17.5787 8.95348 18.5514 9.08036C19.7672 9.23895 20.9953 9.24388 22.9567 8.41075C24.9479 7.56492 27.8025 8.07594 28.6484 8.32264C29.4942 8.56934 32.4193 8.95701 32.8599 8.78079M40.5037 5.3094C40.5907 4.39722 40.5456 3.64248 40.5252 3.35343C40.497 2.95871 40.713 2.24916 40.8247 1.94372C41.0714 2.00833 41.5648 1.97544 41.5648 1.32698C42.1992 0.67499 42.1816 3.60013 41.6882 3.95255C41.2934 4.23449 41.5236 6.34905 41.6882 7.37109C40.9833 10.5077 42.3401 9.48565 41.8644 10.772C41.4838 11.8011 40.6133 11.565 40.2256 11.3183L40.3137 8.41075C40.1551 8.24038 39.8837 7.794 40.067 7.37109C40.3151 6.67776 40.4423 5.95423 40.5037 5.3094Z" fill="#4CAF50"/>
<path d="M40.4194 3.95255C40.1787 4.11114 39.6652 4.52348 39.5384 4.90411C39.4735 5.09805 39.2064 5.52159 38.868 5.99663M38.868 5.99663C38.3771 6.68693 37.7368 7.48595 37.3533 7.84686M38.868 5.99663C38.7454 5.99663 38.4458 6.49002 37.5472 6.93056C36.8282 7.28298 34.1226 8.39312 32.8599 8.90414C32.7365 8.96286 32.5427 9.51032 32.7541 11.2302C32.6484 12.2874 30.7277 16.358 29.4942 17.5033C28.4898 18.5019 26.0298 20.5131 24.2254 20.5694C21.9699 20.6399 19.7496 22.3492 18.5514 23.6003C17.3531 24.8514 14.3222 25.5915 10.4103 25.2743C9.10634 25.5386 7.71426 26.3492 7.46756 26.6312C7.22086 26.9131 4.64815 28.8162 1.17676 27.7237C2.8684 26.9719 6.53363 24.5765 7.6614 21.01C8.78916 17.4434 13.8993 12.0407 16.3135 9.78521C16.6541 9.49738 17.5787 8.95348 18.5514 9.08036C19.7672 9.23895 20.9953 9.24388 22.9567 8.41075C24.9479 7.56492 27.8025 8.07594 28.6484 8.32264C29.4942 8.56934 32.4193 8.95701 32.8599 8.78079M37.3533 7.84686C36.7542 8.41075 32.807 9.87331 32.8599 10.1553M37.3533 7.84686C38.105 7.31823 39.6406 6.20808 39.7674 5.99663C39.8943 5.78517 40.3112 5.45037 40.5037 5.3094M40.5037 5.3094C40.5907 4.39722 40.5456 3.64248 40.5252 3.35343C40.497 2.95871 40.713 2.24916 40.8247 1.94372C41.0714 2.00833 41.5648 1.97544 41.5648 1.32698C42.1992 0.67499 42.1816 3.60013 41.6882 3.95255C41.2934 4.23449 41.5236 6.34905 41.6882 7.37109C40.9833 10.5077 42.3401 9.48565 41.8644 10.772C41.4838 11.8011 40.6133 11.565 40.2256 11.3183L40.3137 8.41075C40.1551 8.24038 39.8837 7.794 40.067 7.37109C40.3151 6.67776 40.4423 5.95423 40.5037 5.3094Z" stroke="#2E7D32" stroke-width="0.564983" stroke-linecap="round" stroke-linejoin="round"/>
</g>
<defs>
<clipPath id="clip0_10_21">
<rect width="64" height="64" fill="white"/>
</clipPath>
</defs>
</svg>
